<svg width="100" height="100" viewBox="0 0 100 100" fill="none" xmlns="http://www.w3.org/2000/svg">
<path d="M50 0C22.3077 0 0 22.3077 0 50C0 77.6923 22.3077 100 50 100C77.6923 100 100 77.6923 100 50C100 44.6231 99.2769 39.2577 97.3538 34.2538L91.1077 40.3846C91.8769 43.4615 92.3115 46.5462 92.3115 50C92.3115 73.4692 73.4731 92.3077 50.0038 92.3077C26.5346 92.3077 7.69231 73.4692 7.69231 50C7.69231 26.5308 26.5308 7.69231 50 7.69231C61.5385 7.69231 71.9038 12.2885 79.2077 19.5923L84.6154 14.1846C75.7692 5.33077 63.4615 0 50 0ZM93.3885 16.4654L50 59.8577L33.5346 43.3885L28.0038 48.9192L47.2346 68.15L50 70.7923L52.7654 68.15L98.9192 21.9962L93.3885 16.4654Z" fill="#008751"/>
</svg>
